<svg width="33" height="26" viewBox="0 0 33 26" fill="none" xmlns="http://www.w3.org/2000/svg">
<path fill-rule="evenodd" clip-rule="evenodd" d="M9.51085 14.1478C9.51085 10.4482 12.5213 7.43374 16.216 7.43374C19.9107 7.43374 22.9212 10.4482 22.9212 14.1478C22.9212 17.8474 19.9107 20.8619 16.216 20.8619C12.5213 20.8619 9.51085 17.8474 9.51085 14.1478ZM11.9398 14.1478C11.9398 16.5115 13.8555 18.4298 16.216 18.4298C18.5765 18.4298 20.4923 16.5115 20.4923 14.1821C20.4923 11.8185 18.5765 9.90014 16.216 9.90014C13.8555 9.90014 11.9398 11.8185 11.9398 14.1478Z" fill="#FE8862"/>
<path fill-rule="evenodd" clip-rule="evenodd" d="M24.4948 3.45982H27.1974C30.1053 3.45982 32.4658 5.82345 32.5 8.70092V20.7246C32.5 23.6364 30.1395 26 27.2316 26H5.23452C2.32666 26 -0.0338429 23.6364 0.000367213 20.7589V8.73518C0.000367213 5.82345 2.36087 3.45982 5.26873 3.45982H7.97133C8.17659 3.45982 8.38185 3.35705 8.48448 3.18577L9.30552 1.91831C10.0581 0.719368 11.3581 0 12.7607 0H19.7054C21.108 0 22.408 0.719368 23.1606 1.91831L23.9817 3.18577C24.0843 3.35705 24.2896 3.45982 24.4948 3.45982ZM27.2316 23.5336C28.7711 23.5336 30.0369 22.2661 30.0369 20.7246V8.70092C30.0369 7.15942 28.7711 5.89196 27.2316 5.89196H24.529C23.4685 5.89196 22.5106 5.34387 21.9291 4.45323L21.108 3.18577C20.8001 2.67194 20.287 2.39789 19.7054 2.39789H12.7607C12.1792 2.39789 11.666 2.70619 11.3581 3.18577L10.5371 4.45323C9.95552 5.34387 8.99763 5.89196 7.93712 5.89196H5.23452C3.69506 5.89196 2.42929 7.15942 2.42929 8.70092V20.7246C2.42929 22.2661 3.69506 23.5336 5.23452 23.5336H27.2316Z" fill="#FE8862"/>
</svg>
