<svg width="22" height="24" viewBox="0 0 22 24" fill="none" xmlns="http://www.w3.org/2000/svg">
<path d="M14.6911 1.90026C14.943 1.90026 15.1846 1.80018 15.3628 1.62205C15.5409 1.44392 15.641 1.20233 15.641 0.950411C15.6454 0.824485 15.6238 0.698995 15.5777 0.581754C15.5315 0.464512 15.4617 0.358028 15.3726 0.26893C15.2835 0.179831 15.177 0.110025 15.0598 0.0638559C14.9425 0.0176868 14.817 -0.00385684 14.6911 0.000565783H7.02902C6.9031 -0.00385684 6.77761 0.0176868 6.66037 0.0638559C6.54313 0.110025 6.43664 0.179831 6.34754 0.26893C6.25844 0.358028 6.18864 0.464512 6.14247 0.581754C6.0963 0.698995 6.07476 0.824485 6.07918 0.950411C6.07918 1.20233 6.17925 1.44392 6.35738 1.62205C6.53551 1.80018 6.77711 1.90026 7.02902 1.90026H14.6911Z" fill="#F93C47"/>
<path d="M8.64475 18.4594C8.89415 18.4515 9.13117 18.3489 9.30761 18.1725C9.48405 17.996 9.58667 17.759 9.59459 17.5096V10.7024C9.59459 10.4504 9.49452 10.2089 9.31639 10.0307C9.13826 9.85259 8.89666 9.75252 8.64475 9.75252C8.51882 9.7481 8.39333 9.76964 8.27609 9.81581C8.15885 9.86198 8.05236 9.93178 7.96327 10.0209C7.87417 10.11 7.80436 10.2165 7.75819 10.3337C7.71202 10.4509 7.69048 10.5764 7.6949 10.7024V17.5096C7.6949 17.7615 7.79497 18.0031 7.97311 18.1812C8.15124 18.3594 8.39283 18.4594 8.64475 18.4594Z" fill="#F93C47"/>
<path d="M13.0763 18.4594C13.3282 18.4594 13.5698 18.3594 13.748 18.1812C13.9261 18.0031 14.0262 17.7615 14.0262 17.5096V10.7024C14.0306 10.5764 14.009 10.4509 13.9629 10.3337C13.9167 10.2165 13.8469 10.11 13.7578 10.0209C13.6687 9.93178 13.5622 9.86198 13.445 9.81581C13.3277 9.76964 13.2022 9.7481 13.0763 9.75252C12.8244 9.75252 12.5828 9.85259 12.4047 10.0307C12.2265 10.2089 12.1265 10.4504 12.1265 10.7024V17.5096C12.1344 17.759 12.237 17.996 12.4134 18.1725C12.5899 18.3489 12.8269 18.4515 13.0763 18.4594Z" fill="#F93C47"/>
<path d="M20.7705 4.17928H0.950412C0.824485 4.17485 0.698995 4.1964 0.581754 4.24257C0.464513 4.28874 0.358029 4.35854 0.26893 4.44764C0.179831 4.53674 0.110025 4.64322 0.0638561 4.76047C0.0176871 4.87771 -0.00385684 5.0032 0.000565777 5.12912C0.000565777 5.38104 0.100639 5.62263 0.278769 5.80076C0.4569 5.9789 0.698497 6.07897 0.950412 6.07897H2.37518V21.1499C2.37518 21.9056 2.6754 22.6304 3.20979 23.1648C3.47439 23.4294 3.78852 23.6393 4.13425 23.7825C4.47997 23.9257 4.85051 23.9994 5.22472 23.9994H16.4962C16.8704 23.9994 17.241 23.9257 17.5867 23.7825C17.9324 23.6393 18.2465 23.4294 18.5111 23.1648C18.7758 22.9002 18.9856 22.586 19.1288 22.2403C19.2721 21.8946 19.3458 21.5241 19.3458 21.1499V6.07897H20.7705C21.0224 6.07897 21.264 5.9789 21.4422 5.80076C21.6203 5.62263 21.7204 5.38104 21.7204 5.12912C21.7248 5.0032 21.7033 4.87771 21.6571 4.76047C21.6109 4.64322 21.5411 4.53674 21.452 4.44764C21.3629 4.35854 21.2564 4.28874 21.1392 4.24257C21.0219 4.1964 20.8965 4.17485 20.7705 4.17928ZM17.4461 21.1499C17.4505 21.2758 17.4289 21.4013 17.3828 21.5185C17.3366 21.6358 17.2668 21.7422 17.1777 21.8313C17.0886 21.9204 16.9821 21.9902 16.8649 22.0364C16.7476 22.0826 16.6221 22.1041 16.4962 22.0997H5.22472C5.09879 22.1041 4.9733 22.0826 4.85606 22.0364C4.73882 21.9902 4.63233 21.9204 4.54324 21.8313C4.45414 21.7422 4.38433 21.6358 4.33816 21.5185C4.29199 21.4013 4.27045 21.2758 4.27487 21.1499V6.07897H17.4461V21.1499Z" fill="#F93C47"/>
</svg>
