<svg width="32" height="25" viewBox="0 0 32 25" fill="none" xmlns="http://www.w3.org/2000/svg">
<path d="M8.85086 0H28.4061C29.3584 0.00253296 30.271 0.381958 30.9443 1.05533C31.6177 1.72873 31.9971 2.6413 31.9997 3.5936V17.856C31.9945 18.6377 31.735 19.3965 31.2605 20.0177C30.7859 20.6389 30.1221 21.0887 29.3693 21.2992V19.3792C29.6288 19.2184 29.8431 18.9942 29.992 18.7278C30.1409 18.4613 30.2195 18.1613 30.2205 17.856V3.60959C30.2196 3.12866 30.0282 2.66763 29.6881 2.32758C29.348 1.98749 28.887 1.79605 28.4061 1.7952H8.85086C8.56178 1.79572 8.27702 1.86539 8.02039 1.99844C7.76375 2.1315 7.54268 2.32404 7.37566 2.56H5.41406C5.63785 1.82187 6.09241 1.17493 6.71098 0.714172C7.32954 0.253387 8.07956 0.00308228 8.85086 0Z" fill="#2C98F0"/>
<path d="M7.85455 8.79227C8.19977 8.56161 8.60562 8.43848 9.02081 8.43848C9.57755 8.43848 10.1115 8.65964 10.5052 9.05331C10.8988 9.44699 11.12 9.98096 11.12 10.5377C11.12 10.9529 10.9969 11.3587 10.7662 11.7039C10.5356 12.0492 10.2077 12.3182 9.82414 12.4771C9.44055 12.636 9.01848 12.6776 8.61127 12.5966C8.20407 12.5156 7.83003 12.3156 7.53645 12.022C7.24287 11.7285 7.04294 11.3544 6.96194 10.9472C6.88094 10.54 6.92252 10.118 7.08139 9.73434C7.24028 9.35077 7.50934 9.02292 7.85455 8.79227Z" fill="#2C98F0"/>
<path fill-rule="evenodd" clip-rule="evenodd" d="M3.4144 3.36649H25.0208L25.0304 3.36328C25.9352 3.36581 26.8022 3.72635 27.442 4.36615C28.0817 5.00592 28.4423 5.87289 28.4448 6.77768V20.7041C28.4448 21.6105 28.0854 22.48 27.4453 23.1219C26.8053 23.7637 25.9369 24.1255 25.0304 24.1281H3.4144C2.50797 24.1255 1.63953 23.7637 0.999466 23.1219C0.359421 22.48 0 21.6105 0 20.7041V6.77768C0.00337219 5.87347 0.364288 5.00729 1.00398 4.36819C1.64366 3.72913 2.51018 3.36902 3.4144 3.36649ZM26.2387 21.9092C26.5584 21.5895 26.7384 21.1562 26.7392 20.7041H26.736V6.77768C26.7352 6.32559 26.5552 5.89224 26.2355 5.57257C25.9158 5.2529 25.4825 5.07294 25.0304 5.07208H3.41121C2.95911 5.07294 2.52577 5.2529 2.2061 5.57257C1.88641 5.89224 1.70645 6.32559 1.7056 6.77768V20.7041C1.70306 20.9301 1.74539 21.1544 1.83012 21.3639C1.91486 21.5735 2.04033 21.7641 2.19926 21.9248C2.35818 22.0855 2.54742 22.2131 2.75601 22.3002C2.96458 22.3873 3.18837 22.4321 3.4144 22.4321H4.528C4.58243 22.1374 4.69092 21.8553 4.84801 21.6001L7.2832 17.5041C8.08321 16.1601 9.39201 16.1601 10.192 17.5041L11.4016 19.5297L15.9168 11.7057C16.7008 10.3521 17.9808 10.3521 18.7616 11.7057L24.448 21.5585C24.6075 21.8195 24.7161 22.1083 24.768 22.4097H25.0336C25.4857 22.4088 25.9191 22.2289 26.2387 21.9092Z" fill="#2C98F0"/>
</svg>
